# xmcd CD database file
#
# Track frame offsets:
#	150
#	29100
#	56180
#	87355
#	108550
#	127835
#	159680
#	191030
#	210305
#	235680
#	257860
#	282285
#	300545
#	321785
#
# Disc length: 4571 seconds
#
# Revision: 11
# Processed by: cddbd v1.5.2PL0 Copyright (c) Steve Scherf et al.
# Submitted via: CDex 1.70beta2
#
DISCID=c811d90e
DTITLE=Various Artist - Smooth Jazz Cafe 3
DYEAR=2001
DGENRE=Jazz
TTITLE0=Marc Jordan - This is How Men Cry (Charlie Parker Loves Me)
TTITLE1=Jimmy Haslip - Los Feliz
TTITLE2=Kenny Loggins - Conviction Of The Heart
TTITLE3=Peter White and Basia - Just Another Day
TTITLE4=Patrick Leonard - The Slough
TTITLE5=Ella Fitzgerald - Bewitched
TTITLE6=Chuck Mangione - Children Of Sanchez
TTITLE7=Grover Washington Jr - Soulful Strut
TTITLE8=Anna Jopek - Poranne łzy
TTITLE9=Keiko Matsui -  Night Hawk's Dream
TTITLE10=Sovory - Love Is Still Enough
TTITLE11=St. Germain - Rose Rouge
TTITLE12=Till Bronner - Have You Met Chet
TTITLE13=Marc Antoine - Sunland
EXTD=YEAR: 2001
EXTT0=
EXTT1=
EXTT2=
EXTT3=
EXTT4=
EXTT5=
EXTT6=
EXTT7=
EXTT8=
EXTT9=
EXTT10=
EXTT11=
EXTT12=
EXTT13=
PLAYORDER=
